<svg version="1.1" id="Layer_1" xmlns="http://www.w3.org/2000/svg" xmlns:xlink="http://www.w3.org/1999/xlink" x="0px" y="0px"
	 width="100%" viewBox="0 0 496 496" enable-background="new 0 0 496 496" xml:space="preserve">
<path fill="#000000" opacity="1.000000" stroke="none" 
	d="
M286.975800,320.945984 
	C285.546051,321.099274 284.064209,322.028839 283.330933,321.087067 
	C278.396545,314.749451 268.660065,314.582581 264.970551,306.447296 
	C263.982697,304.269104 263.181213,300.427460 258.304840,301.749573 
	C256.537659,302.228699 255.455215,297.734009 254.068420,295.503998 
	C253.725067,294.951904 253.436432,294.365784 252.132095,293.809174 
	C252.132095,295.991272 252.118561,298.173431 252.134537,300.355408 
	C252.191925,308.187653 252.310577,316.019958 252.293289,323.851959 
	C252.287735,326.372253 253.114334,329.842590 249.085999,329.926666 
	C245.089417,330.010040 245.649002,326.665100 245.668793,324.045013 
	C245.732971,315.546417 245.858383,307.048309 245.922134,298.549713 
	C245.934250,296.934875 246.382690,295.254669 245.151108,293.164734 
	C244.138412,295.145325 243.400635,296.895508 242.392975,298.473297 
	C241.366928,300.079865 241.045959,302.948059 237.768082,301.163940 
	C236.513565,300.481110 235.883682,302.170837 235.218201,303.041870 
	C232.993454,305.953705 230.872452,308.945679 228.616013,311.832092 
	C227.304535,313.509766 226.111832,315.351685 223.290710,314.237274 
	C221.217285,313.418274 220.640442,315.735443 219.511276,316.808746 
	C217.199707,319.006042 215.659744,322.380585 211.304642,321.009766 
	C209.662079,320.492737 208.387436,322.402069 207.299347,323.617096 
	C202.745819,328.701904 198.031281,333.653259 194.132599,339.294708 
	C193.436142,340.302490 193.207230,341.893005 190.860977,341.950287 
	C190.358871,329.860504 191.316452,318.269012 198.491699,307.928558 
	C200.835815,304.550354 202.531738,300.681793 206.555374,298.735657 
	C208.769608,297.664673 208.652649,295.685516 208.039505,293.562653 
	C205.315292,293.200989 203.207489,294.781250 200.899200,295.545441 
	C197.355255,296.718781 193.963181,299.145905 190.078964,296.459442 
	C189.733032,296.220184 189.028320,296.219421 188.615875,296.398041 
	C180.859573,299.757263 172.778732,300.287445 164.419968,299.923218 
	C160.328293,299.744873 156.420029,300.985077 152.609222,297.909729 
	C150.259079,296.013184 146.801239,297.344635 143.865494,297.729675 
	C141.113998,298.090546 138.606689,298.276520 136.745239,295.583405 
	C135.220505,293.377441 132.774124,294.545807 130.717270,294.286804 
	C126.122696,293.708252 120.407501,296.357117 117.832756,289.833649 
	C117.704567,289.508881 116.957474,289.211700 116.532516,289.252777 
	C108.858299,289.994965 102.740150,284.092926 95.155487,284.284760 
	C93.273819,284.332306 91.366814,283.378204 89.222786,282.819794 
	C90.491066,279.500214 93.342018,278.625427 95.637436,278.032349 
	C105.442131,275.499268 114.184731,270.269684 123.770256,267.032959 
	C131.997696,264.254761 140.544388,265.678131 148.286057,262.179810 
	C150.297638,261.270844 152.836212,262.968231 154.642487,262.385712 
	C163.234100,259.615082 171.854736,261.939728 180.413071,261.925415 
	C188.467331,261.911957 196.329422,264.157532 204.212692,266.218628 
	C214.090027,268.801086 223.427399,272.940643 233.406769,275.264740 
	C226.189590,270.286133 218.920181,265.522614 210.767136,262.191223 
	C203.348297,259.159821 195.836670,255.244537 189.976883,250.482178 
	C184.080093,245.689728 175.842422,244.128281 171.796783,238.741226 
	C166.592606,231.811478 157.295868,231.316055 152.895859,223.797562 
	C151.502289,221.416321 147.150620,220.800430 144.199585,219.285278 
	C141.961884,218.136353 139.756866,216.945908 139.684753,213.871780 
	C139.638779,211.911407 138.014938,211.167770 136.498093,210.398071 
	C133.974991,209.117767 131.421555,207.878113 129.003845,206.417770 
	C127.908272,205.755997 126.169106,204.401443 126.320061,203.710190 
	C127.622353,197.746994 122.447021,196.922287 119.370636,194.391418 
	C116.459381,191.996429 113.143761,189.917542 114.509315,185.017212 
	C115.130516,182.788040 112.448418,181.860397 110.983032,180.609879 
	C107.894257,177.974060 103.709747,176.096237 104.750633,170.800323 
	C104.853851,170.275146 104.389626,169.503326 103.976524,169.032013 
	C97.602585,161.759750 92.408783,153.314407 83.090660,149.008926 
	C80.719429,147.913284 78.014404,146.600433 76.512138,143.477844 
	C81.654663,141.728775 86.270821,143.580353 90.847900,144.325882 
	C95.953224,145.157440 100.734818,147.223999 105.489090,149.268478 
	C109.166435,150.849808 112.364456,153.468643 117.137009,151.895325 
	C119.722031,151.043152 121.915215,154.442490 124.231155,156.004120 
	C126.571098,157.581894 128.686172,159.715027 131.556534,156.646835 
	C132.863800,155.249451 134.442307,156.429672 135.567322,157.352615 
	C137.621246,159.037613 139.551392,160.880356 141.463730,162.729111 
	C143.328613,164.531952 145.006042,166.371124 147.769760,163.910599 
	C149.342987,162.509949 151.004333,163.530121 152.210693,164.728012 
	C154.212418,166.715714 156.104034,168.826492 157.911331,170.994370 
	C159.630722,173.056808 160.969559,175.452530 164.382858,173.594711 
	C165.949921,172.741760 167.231445,174.235733 168.205994,175.310623 
	C170.438065,177.772491 172.545486,180.349762 174.648193,182.925354 
	C175.481567,183.946167 176.077545,185.701050 177.463562,185.511841 
	C182.876450,184.772873 184.501999,189.049500 186.860458,192.301559 
	C188.232010,194.192749 189.507828,195.664795 191.955231,196.615234 
	C195.512177,197.996582 196.537979,202.115662 198.458496,205.173248 
	C200.769089,208.851837 202.090256,212.775421 206.961258,214.826538 
	C210.762039,216.427032 211.723053,221.788147 213.814194,225.554474 
	C215.173355,228.002441 216.065094,230.673950 219.312729,231.563538 
	C221.104965,232.054474 221.966904,234.042984 222.851700,235.624344 
	C228.200928,245.185074 235.328308,253.669754 239.771973,263.789368 
	C240.813828,266.162018 242.521133,268.242462 244.249619,270.306793 
	C243.588181,262.933929 240.686279,256.326477 237.616837,249.774429 
	C235.713882,245.712402 232.541534,241.782822 232.761948,237.330276 
	C233.127686,229.941742 228.561661,223.774902 228.313828,217.001984 
	C228.056854,209.978836 223.973770,203.695129 224.404907,197.400620 
	C224.899017,190.186569 222.035812,184.363022 220.770264,177.909470 
	C220.517960,176.622787 220.307892,175.102692 220.747818,173.944519 
	C222.607300,169.049225 221.137131,164.519241 219.760925,159.884216 
	C219.014069,157.368805 218.288605,154.702881 220.457184,152.352936 
	C220.752853,152.032516 220.917419,151.362106 220.812241,150.935165 
	C219.240326,144.555542 221.044785,138.337250 221.311447,132.051254 
	C221.604782,125.135948 222.608139,117.887344 224.497223,111.966026 
	C227.088516,103.843658 226.744095,94.352631 231.515533,87.698334 
	C235.822968,81.691162 234.992126,74.704460 238.636703,68.720909 
	C241.349182,64.267654 240.538208,57.757896 241.707108,52.251217 
	C243.045883,45.944309 244.860504,39.742496 248.398026,34.266567 
	C250.813126,34.732132 251.035187,36.626961 251.642090,38.038021 
	C255.416916,46.814632 257.772858,55.954800 258.319672,65.522507 
	C258.414124,67.175163 258.185089,68.913071 259.684387,70.130928 
	C261.856323,71.895149 262.151886,74.438316 262.218201,76.906418 
	C262.297760,79.867889 262.803436,82.497650 265.153503,84.557617 
	C265.744202,85.075401 266.394165,85.928741 266.407379,86.639183 
	C266.524078,92.930130 271.622040,98.091980 270.431793,104.689644 
	C270.239594,105.754845 270.368195,107.592392 271.008728,107.978958 
	C275.629669,110.767746 273.125671,115.551788 274.482422,119.042191 
	C276.977203,125.460182 274.717590,132.482422 277.949463,138.667389 
	C279.040314,140.755066 278.131042,143.202606 277.717682,145.518433 
	C277.192810,148.459366 275.410095,151.572861 278.623962,154.321182 
	C279.639832,155.189896 278.921906,156.865723 278.562347,158.148010 
	C277.089783,163.399551 275.586151,168.488220 277.176575,174.185349 
	C278.316956,178.270218 276.282623,182.354935 274.698212,186.220001 
	C273.675293,188.715332 273.037292,191.024597 273.990479,193.890457 
	C275.020935,196.988663 273.284668,200.062073 272.314148,203.041870 
	C271.100494,206.768341 269.025513,210.171875 270.120300,214.516357 
	C270.590179,216.380981 269.377472,218.699036 268.829376,220.784836 
	C267.551697,225.647141 264.881531,229.987427 265.616150,235.568863 
	C266.170319,239.779358 263.252899,243.755478 261.400757,247.669296 
	C257.993866,254.868408 254.694092,262.113251 254.184402,270.528381 
	C255.436935,268.524933 256.987244,266.646698 257.891022,264.496674 
	C262.052643,254.596085 268.780823,246.243576 274.218994,237.118286 
	C275.761444,234.530029 276.904633,231.297073 280.804108,230.873886 
	C281.559113,230.791962 282.243958,229.197159 282.789062,228.205627 
	C284.634460,224.849091 286.365356,221.429428 288.220734,218.078598 
	C288.859131,216.925644 289.611603,215.090530 290.521454,214.953018 
	C296.876709,213.992401 297.731781,208.240692 299.982452,204.042969 
	C303.840851,196.846664 310.200806,191.386658 316.182739,187.227921 
	C321.252258,183.703522 325.001221,179.403152 329.352417,175.462585 
	C330.202209,174.693039 331.486908,173.432724 332.206238,173.643509 
	C338.058441,175.358276 339.934845,170.548477 342.869110,167.463257 
	C345.428375,164.772293 347.790527,161.909973 352.182556,164.570053 
	C353.817871,165.560501 355.253204,163.932327 356.486877,162.788940 
	C358.440704,160.978088 360.348511,159.109344 362.398468,157.413361 
	C363.678589,156.354294 365.174774,155.308441 366.750244,157.092621 
	C368.905823,159.533722 370.712006,158.332626 372.753387,156.762146 
	C376.151123,154.148193 379.006775,150.175049 384.499512,152.716812 
	C385.722382,153.282684 388.158234,151.521210 389.911621,150.596252 
	C397.969482,146.345612 406.580902,143.934525 415.569122,142.821426 
	C417.441010,142.589600 419.503387,142.047226 421.327423,143.564026 
	C420.912262,145.926849 418.799072,146.521637 417.264252,147.613525 
	C412.784943,150.800064 408.193115,153.830368 403.755066,157.072098 
	C401.584595,158.657486 398.656219,159.827347 399.474121,163.619202 
	C399.624695,164.317169 398.295868,165.579239 397.392059,166.213730 
	C394.672638,168.122833 392.878113,170.094177 393.183624,173.951233 
	C393.410797,176.819458 390.090637,178.018051 388.089996,179.689804 
	C385.668182,181.713486 383.643524,183.327988 383.874146,187.365158 
	C384.106415,191.430573 379.958313,193.587646 376.733246,195.690674 
	C374.087280,197.416077 370.819824,198.189728 371.795532,203.001495 
	C372.300049,205.489624 368.548431,206.819305 366.242493,208.079559 
	C362.563354,210.090317 358.629333,211.228577 357.158112,216.314102 
	C356.215027,219.574005 351.714294,220.347153 348.548065,221.790695 
	C346.333099,222.800507 344.203491,223.361145 343.039246,226.222244 
	C341.913330,228.989227 338.370087,229.749771 335.763123,231.184082 
	C332.922119,232.747162 330.136383,233.799576 328.380249,237.277313 
	C326.789703,240.427139 322.361633,241.147888 319.047577,242.642303 
	C315.879517,244.070877 312.983887,245.303574 310.925690,248.643799 
	C308.905487,251.922363 304.273376,252.262878 301.201141,254.379272 
	C293.860107,259.436340 285.389862,262.208069 277.852509,266.674957 
	C272.756927,269.694733 267.083893,271.866821 261.888062,276.514069 
	C265.604614,275.378113 268.696198,274.849731 271.401825,273.529999 
	C280.399780,269.141052 290.232971,267.345947 299.720490,264.711639 
	C306.346680,262.871826 313.357605,260.201141 320.695679,262.469696 
	C321.972198,262.864349 323.599854,262.087219 325.071045,261.895142 
	C329.404053,261.329498 333.815704,259.076904 337.980225,262.515625 
	C338.304291,262.783203 338.997803,262.835602 339.432312,262.702698 
	C347.445679,260.250946 355.036896,264.732422 362.994873,264.131348 
	C365.950836,263.908081 369.857239,263.091827 371.612457,267.314423 
	C372.032532,268.325073 373.401703,267.918854 374.372009,267.918182 
	C378.972229,267.914978 383.339691,268.851990 387.148651,271.512329 
	C392.303864,275.112946 398.721924,275.632843 404.098938,278.655762 
	C405.761230,279.590271 407.999847,279.828735 408.478638,282.154175 
	C407.873291,283.604309 406.481781,283.651611 405.479584,283.694458 
	C397.393677,284.039795 390.338409,288.717560 382.282227,289.126129 
	C381.639832,289.158722 380.615448,289.287323 380.435608,289.678223 
	C377.292023,296.510712 371.147034,293.844543 366.030243,294.230621 
	C363.846558,294.395386 361.905121,294.220795 360.422272,296.497772 
	C359.079559,298.559570 356.648041,298.115326 354.450623,297.800720 
	C350.525543,297.238800 346.575012,296.334747 343.086029,299.436951 
	C342.327820,300.111084 340.811768,300.414795 339.773346,300.216309 
	C330.755585,298.492645 321.244873,301.877197 312.450714,297.407837 
	C310.304840,296.317261 308.031342,295.533813 305.082947,297.340210 
	C302.682495,298.810913 299.464142,296.246216 296.653107,295.293243 
	C294.629578,294.607208 292.804932,293.266296 290.298309,293.365509 
	C288.970245,295.700500 289.628632,297.189575 291.679901,299.085693 
	C300.025360,306.799835 305.855591,315.850586 306.377167,327.738953 
	C306.586182,332.503204 307.953003,337.215668 306.937561,342.980286 
	C300.325439,335.111084 295.029785,326.901123 286.975800,320.945984 
z"/>
<path fill="#000000" opacity="1.000000" stroke="none" 
	d="
M272.344421,434.053894 
	C272.333099,436.029633 272.227509,437.533295 272.331879,439.022217 
	C272.556580,442.227264 271.175842,443.417847 267.948975,443.417084 
	C264.578094,443.416260 263.670288,441.872070 263.693024,438.835419 
	C263.768890,428.689697 263.781708,418.542053 263.660370,408.397034 
	C263.621521,405.149689 265.029510,404.061401 268.111511,403.891357 
	C276.129822,403.448914 276.545715,403.705292 278.313568,411.680267 
	C279.638397,417.656799 281.059021,423.612122 282.768524,431.011871 
	C285.912048,422.803284 286.754608,415.458832 288.469910,408.371429 
	C289.244202,405.172028 290.728912,403.982361 293.888489,403.853729 
	C301.869507,403.528900 302.275085,403.825043 302.269531,411.934784 
	C302.263489,420.750580 302.207275,429.566711 302.269318,438.381989 
	C302.290924,441.451660 301.689453,443.411835 297.916443,443.446014 
	C294.083649,443.480652 293.664948,441.460968 293.595886,438.422699 
	C293.492310,433.864899 294.240265,429.211884 292.538269,423.844421 
	C289.933990,429.151672 289.488403,434.138336 288.415192,438.910065 
	C287.722015,441.992249 286.469391,443.466888 283.108154,443.459503 
	C279.724701,443.452057 277.994659,442.519104 277.432465,438.871948 
	C276.655121,433.829041 275.199371,428.890747 273.451691,423.883331 
	C271.976624,426.993835 272.471039,430.329163 272.344421,434.053894 
z"/>
<path fill="#000000" opacity="1.000000" stroke="none" 
	d="
M374.555084,410.665710 
	C378.635345,418.782288 378.607117,426.740051 375.298523,434.620178 
	C372.891052,440.354034 368.431274,443.445709 362.010223,443.375183 
	C357.344513,443.323975 352.675751,443.284058 348.012146,443.396759 
	C345.010315,443.469269 343.815948,442.129639 343.830322,439.214386 
	C343.881287,428.882050 343.870422,418.549286 343.842621,408.216797 
	C343.835846,405.700897 344.615204,403.903015 347.457733,403.922394 
	C353.441925,403.963165 359.447632,403.348694 365.395386,404.594360 
	C369.136353,405.377869 372.313965,406.949280 374.555084,410.665710 
M354.733826,413.170013 
	C351.710022,418.303253 353.878876,423.900604 353.346924,429.258728 
	C353.120575,431.538696 353.038300,434.308655 355.800903,435.207672 
	C358.481079,436.079834 361.376007,436.244110 363.932861,434.428986 
	C368.179993,431.413940 369.760590,423.091003 367.256714,416.942474 
	C365.478210,412.575165 362.464478,411.496460 354.733826,413.170013 
z"/>
<path fill="#000000" opacity="1.000000" stroke="none" 
	d="
M339.214905,439.061096 
	C339.427917,442.304962 338.042236,443.397400 335.349518,443.379181 
	C327.855652,443.328430 320.360382,443.306213 312.867279,443.399811 
	C309.921997,443.436554 308.655762,442.282715 308.679535,439.280945 
	C308.761261,428.956116 308.774048,418.629669 308.678375,408.305115 
	C308.648193,405.053314 310.105042,403.826111 313.194122,403.858551 
	C320.021576,403.930328 326.850189,403.934875 333.678070,403.907013 
	C336.662170,403.894836 338.348114,404.884674 338.281067,408.260223 
	C338.210968,411.787994 336.145813,412.311981 333.341431,412.279022 
	C329.678223,412.235962 326.013916,412.286591 322.350098,412.292267 
	C320.156952,412.295685 318.298645,412.728729 318.266541,415.482880 
	C318.234406,418.236664 320.043457,418.725647 322.266052,418.732819 
	C325.763092,418.744110 329.260345,418.820526 332.756958,418.794281 
	C335.683136,418.772339 336.319489,420.456116 336.341278,422.991547 
	C336.363617,425.595245 335.565918,427.148041 332.703583,427.137177 
	C329.207001,427.123901 325.710144,427.214508 322.213287,427.231567 
	C318.830750,427.248108 318.126465,429.331604 318.127045,432.201385 
	C318.127655,435.231873 319.912018,435.715332 322.382904,435.677582 
	C326.545288,435.613922 330.709625,435.667786 334.873077,435.682861 
	C336.955505,435.690369 338.998718,435.779236 339.214905,439.061096 
z"/>
<path fill="#000000" opacity="1.000000" stroke="none" 
	d="
M132.964783,404.651520 
	C135.851730,405.935883 137.814041,407.756592 138.937241,410.242218 
	C139.764725,412.073364 141.612717,414.586273 139.093750,415.957245 
	C136.777664,417.217804 133.481644,418.120667 131.522507,414.958801 
	C129.297516,411.367920 126.102440,410.852631 122.432854,411.476349 
	C120.655731,411.778381 119.368019,412.855042 119.247368,414.797302 
	C119.136475,416.582367 120.372688,417.648224 121.820999,418.091156 
	C125.151993,419.109894 128.573868,419.826630 131.934738,420.753479 
	C138.981216,422.696594 141.455582,425.530640 141.533371,431.616241 
	C141.614609,437.970184 138.531311,442.148132 131.889496,443.750580 
	C126.832893,444.970581 121.641418,444.985992 116.695877,442.939026 
	C111.770401,440.900330 109.620323,437.217041 109.851898,431.274170 
	C113.594757,430.371948 116.888824,429.642487 119.394981,434.233337 
	C121.080879,437.321625 127.934067,437.597626 130.791168,435.401520 
	C133.445389,433.361389 133.117218,430.669067 129.692673,429.405151 
	C126.130547,428.090454 122.321449,427.462555 118.671219,426.365143 
	C112.147423,424.403778 109.403137,420.829132 109.711754,414.963440 
	C110.034233,408.834045 113.866646,404.874237 120.349838,403.601013 
	C124.560226,402.774139 128.599670,403.054626 132.964783,404.651520 
z"/>
<path fill="#000000" opacity="1.000000" stroke="none" 
	d="
M172.488953,426.760437 
	C167.906387,427.021362 163.753098,427.223267 159.602264,427.180878 
	C156.331970,427.147522 155.287109,428.662354 155.302841,431.780457 
	C155.318985,434.977783 156.915665,435.743500 159.689087,435.683899 
	C163.844635,435.594604 168.006439,435.763031 172.160370,435.642548 
	C175.080795,435.557861 177.038513,436.244476 177.022980,439.664459 
	C177.008347,442.886169 175.094574,443.425079 172.423859,443.397949 
	C165.273560,443.325226 158.120193,443.271179 150.971893,443.409149 
	C147.715225,443.472015 146.599289,442.139496 146.633789,438.978424 
	C146.744522,428.835175 146.757889,418.688904 146.627914,408.546082 
	C146.583359,405.069977 148.035187,403.787445 151.378372,403.839661 
	C158.028854,403.943512 164.682175,403.900116 171.334045,403.864655 
	C174.261505,403.848999 176.076309,404.768127 176.101395,408.126648 
	C176.126877,411.539368 174.319214,412.351624 171.359192,412.279510 
	C167.370651,412.182343 163.377472,412.277679 159.386292,412.284119 
	C157.164093,412.287689 155.450073,412.811371 155.376755,415.547791 
	C155.300430,418.396667 157.081650,418.781555 159.291443,418.770416 
	C162.451080,418.754486 165.611465,418.722992 168.770416,418.771240 
	C174.625565,418.860626 175.772339,421.048645 172.488953,426.760437 
z"/>
<path fill="#000000" opacity="1.000000" stroke="none" 
	d="
M237.627029,419.773376 
	C240.583344,421.104370 240.383179,423.340729 239.845901,425.453430 
	C239.223770,427.899872 236.989288,427.183014 235.259445,427.358948 
	C235.094574,427.375763 234.926590,427.360779 234.760101,427.363403 
	C223.930359,427.533508 222.773239,425.320007 223.248230,438.549042 
	C223.381790,442.268799 221.817123,443.422058 218.220413,443.486786 
	C214.387848,443.555786 212.953934,441.727142 213.227203,438.401123 
	C214.060883,428.255005 213.559006,418.098694 213.662796,407.948792 
	C213.694626,404.834717 215.269623,403.871124 218.024902,403.884094 
	C224.685654,403.915405 231.346588,403.933777 238.007401,403.925323 
	C240.756683,403.921814 242.338470,404.833130 242.354584,407.981293 
	C242.371414,411.273438 240.934357,412.432068 237.818756,412.317017 
	C234.492996,412.194183 231.158997,412.282471 227.828690,412.297638 
	C225.191055,412.309631 223.255600,413.068054 223.299500,416.254517 
	C223.341766,419.323792 225.295288,419.664093 227.682739,419.645996 
	C230.846069,419.622040 234.010025,419.681366 237.627029,419.773376 
z"/>
<path fill="#000000" opacity="1.000000" stroke="none" 
	d="
M191.324036,418.005371 
	C191.329834,422.821503 191.381683,427.140991 191.324783,431.459015 
	C191.286133,434.393463 192.618378,435.691437 195.553848,435.633423 
	C199.206390,435.561249 202.864090,435.732269 206.515915,435.645203 
	C209.286285,435.579193 210.343796,436.768433 210.325760,439.516693 
	C210.307693,442.269653 209.186493,443.406219 206.455765,443.380096 
	C199.645935,443.315002 192.834244,443.313507 186.024765,443.400299 
	C183.130539,443.437195 181.748474,442.312256 181.766556,439.315796 
	C181.829651,428.851318 181.830521,418.386139 181.790161,407.921509 
	C181.776886,404.478455 183.840729,403.844543 186.676987,403.824646 
	C189.604691,403.804108 191.495239,404.608337 191.340317,408.041199 
	C191.198181,411.190674 191.318863,414.352020 191.324036,418.005371 
z"/>
<path fill="#000000" opacity="1.000000" stroke="none" 
	d="
M259.766357,428.091797 
	C259.783569,431.190887 258.480408,432.390594 255.784363,432.283264 
	C253.315781,432.184998 250.833710,432.164368 248.368607,432.303925 
	C245.072723,432.490509 243.566422,431.277679 243.593735,427.768463 
	C243.620911,424.273468 245.500290,423.639679 248.337936,423.726227 
	C250.643860,423.796539 252.955627,423.826813 255.260345,423.746765 
	C258.039948,423.650269 259.682465,424.722809 259.766357,428.091797 
z"/>
<path fill="#000000" opacity="1.000000" stroke="none" 
	d="
M386.351807,443.362640 
	C380.896606,443.529724 382.675964,439.741058 382.663025,437.353546 
	C382.642273,433.526154 385.810394,434.908905 387.855896,434.704407 
	C390.874817,434.402588 391.224121,436.358276 391.371643,438.805542 
	C391.580505,442.269257 390.225067,443.766846 386.351807,443.362640 
z"/>
</svg>